<svg width="241" height="48" viewBox="0 0 241 48" fill="none" xmlns="http://www.w3.org/2000/svg">
<path d="M56.0249 35.5V10.825H67.3999C70.1065 10.825 72.1949 11.3967 73.6649 12.54C75.1349 13.6833 75.8699 15.2467 75.8699 17.23C75.8699 18.7 75.4266 19.9483 74.5399 20.975C73.6765 22.0017 72.4865 22.69 70.9699 23.04V22.48C72.7432 22.7833 74.1082 23.46 75.0649 24.51C76.0449 25.5367 76.5349 26.8783 76.5349 28.535C76.5349 30.7283 75.7532 32.4433 74.1899 33.68C72.6499 34.8933 70.5149 35.5 67.7849 35.5H56.0249ZM61.2399 31.44H67.1199C68.4732 31.44 69.5116 31.1833 70.2349 30.67C70.9582 30.1567 71.3199 29.34 71.3199 28.22C71.3199 27.0767 70.9582 26.26 70.2349 25.77C69.5116 25.2567 68.4732 25 67.1199 25H61.2399V31.44ZM61.2399 20.975H66.4199C67.8432 20.975 68.8932 20.7183 69.5699 20.205C70.2466 19.6917 70.5849 18.9217 70.5849 17.895C70.5849 16.8917 70.2466 16.1333 69.5699 15.62C68.8932 15.1067 67.8432 14.85 66.4199 14.85H61.2399V20.975ZM80.045 35.5V9.74H85.33V35.5H80.045ZM96.0895 35.885C93.8728 35.885 92.2278 35.2783 91.1545 34.065C90.0812 32.8283 89.5445 30.9617 89.5445 28.465V17.755H94.8295V28.465C94.8295 29.585 95.0512 30.4133 95.4945 30.95C95.9612 31.4867 96.6728 31.755 97.6295 31.755C98.6795 31.755 99.5428 31.3933 100.219 30.67C100.919 29.9233 101.269 28.9317 101.269 27.695V17.755H106.554V35.5H101.409V32.105H101.899C101.363 33.295 100.593 34.2283 99.5895 34.905C98.6095 35.5583 97.4428 35.885 96.0895 35.885ZM119.834 35.885C116.754 35.885 114.351 35.0567 112.624 33.4C110.898 31.7433 110.034 29.4917 110.034 26.645C110.034 24.8017 110.396 23.1917 111.119 21.815C111.866 20.4383 112.893 19.365 114.199 18.595C115.529 17.8017 117.081 17.405 118.854 17.405C120.604 17.405 122.063 17.7783 123.229 18.525C124.419 19.2717 125.306 20.3217 125.889 21.675C126.496 23.005 126.799 24.5567 126.799 26.33V27.555H114.374V24.93H122.949L122.354 25.42C122.354 23.95 122.051 22.8417 121.444 22.095C120.861 21.325 120.009 20.94 118.889 20.94C117.653 20.94 116.696 21.395 116.019 22.305C115.366 23.215 115.039 24.5217 115.039 26.225V26.785C115.039 28.5117 115.459 29.795 116.299 30.635C117.163 31.475 118.399 31.895 120.009 31.895C120.966 31.895 121.864 31.7783 122.704 31.545C123.568 31.2883 124.384 30.8917 125.154 30.355L126.624 33.855C125.738 34.5083 124.711 35.01 123.544 35.36C122.401 35.71 121.164 35.885 119.834 35.885ZM142.437 35.885C139.801 35.885 137.537 35.36 135.647 34.31C133.757 33.26 132.299 31.79 131.272 29.9C130.269 27.9867 129.767 25.735 129.767 23.145C129.767 20.555 130.269 18.315 131.272 16.425C132.299 14.535 133.757 13.065 135.647 12.015C137.537 10.965 139.801 10.44 142.437 10.44C144.141 10.44 145.692 10.685 147.092 11.175C148.492 11.6417 149.682 12.33 150.662 13.24L148.947 17.545C147.874 16.705 146.847 16.11 145.867 15.76C144.911 15.41 143.826 15.235 142.612 15.235C140.302 15.235 138.529 15.9233 137.292 17.3C136.079 18.6533 135.472 20.6017 135.472 23.145C135.472 25.6883 136.079 27.6483 137.292 29.025C138.529 30.4017 140.302 31.09 142.612 31.09C143.826 31.09 144.911 30.915 145.867 30.565C146.847 30.215 147.874 29.62 148.947 28.78L150.662 33.085C149.682 33.9717 148.492 34.66 147.092 35.15C145.692 35.64 144.141 35.885 142.437 35.885ZM161.282 35.885C159.392 35.885 157.747 35.5117 156.347 34.765C154.97 33.995 153.897 32.9217 153.127 31.545C152.38 30.1683 152.007 28.5233 152.007 26.61C152.007 24.72 152.38 23.0867 153.127 21.71C153.897 20.3333 154.97 19.2717 156.347 18.525C157.747 17.7783 159.392 17.405 161.282 17.405C163.172 17.405 164.817 17.7783 166.217 18.525C167.617 19.2717 168.69 20.3333 169.437 21.71C170.207 23.0867 170.592 24.72 170.592 26.61C170.592 28.5233 170.207 30.1683 169.437 31.545C168.69 32.9217 167.617 33.995 166.217 34.765C164.817 35.5117 163.172 35.885 161.282 35.885ZM161.282 31.895C162.495 31.895 163.452 31.4633 164.152 30.6C164.875 29.7367 165.237 28.4067 165.237 26.61C165.237 24.8133 164.875 23.495 164.152 22.655C163.452 21.815 162.495 21.395 161.282 21.395C160.069 21.395 159.1 21.815 158.377 22.655C157.677 23.495 157.327 24.8133 157.327 26.61C157.327 28.4067 157.677 29.7367 158.377 30.6C159.1 31.4633 160.069 31.895 161.282 31.895ZM200.109 35.885C198.569 35.885 197.216 35.5117 196.049 34.765C194.882 34.0183 193.972 32.9567 193.319 31.58C192.666 30.2033 192.339 28.5467 192.339 26.61C192.339 24.6967 192.666 23.0517 193.319 21.675C193.972 20.2983 194.882 19.2483 196.049 18.525C197.216 17.7783 198.569 17.405 200.109 17.405C201.532 17.405 202.804 17.755 203.924 18.455C205.067 19.1317 205.814 20.0533 206.164 21.22H205.779L206.199 17.755H211.274C211.204 18.525 211.134 19.3067 211.064 20.1C211.017 20.87 210.994 21.6283 210.994 22.375V35.5H205.744L205.709 32.175H206.129C205.756 33.295 205.009 34.1933 203.889 34.87C202.769 35.5467 201.509 35.885 200.109 35.885ZM201.719 31.895C202.932 31.895 203.912 31.4633 204.659 30.6C205.406 29.7367 205.779 28.4067 205.779 26.61C205.779 24.8133 205.406 23.495 204.659 22.655C203.912 21.815 202.932 21.395 201.719 21.395C200.506 21.395 199.526 21.815 198.779 22.655C198.032 23.495 197.659 24.8133 197.659 26.61C197.659 28.4067 198.021 29.7367 198.744 30.6C199.491 31.4633 200.482 31.895 201.719 31.895ZM215.293 35.5V22.445C215.293 21.675 215.27 20.8933 215.223 20.1C215.2 19.3067 215.142 18.525 215.048 17.755H220.123L220.718 22.935H219.913C220.147 21.675 220.52 20.6367 221.033 19.82C221.57 19.0033 222.223 18.3967 222.993 18C223.787 17.6033 224.685 17.405 225.688 17.405C226.132 17.405 226.482 17.4283 226.738 17.475C226.995 17.4983 227.252 17.5567 227.508 17.65L227.473 22.305C226.983 22.095 226.563 21.9667 226.213 21.92C225.887 21.85 225.467 21.815 224.953 21.815C223.973 21.815 223.157 22.0017 222.503 22.375C221.873 22.7483 221.395 23.2967 221.068 24.02C220.765 24.7433 220.613 25.6183 220.613 26.645V35.5H215.293Z" fill="white"/>
<path d="M174.005 35.5V9.74H179.29V35.5H174.005ZM183.609 35.5V9.74H188.894V35.5H183.609Z" fill="#FFB342"/>
<path d="M23.4004 7.92933L18.5776 5.11621L13.7549 7.92933" stroke="white" stroke-width="3" stroke-linecap="round" stroke-linejoin="round"/>
<path d="M18.5781 5.11621V12.149" stroke="white" stroke-width="3" stroke-miterlimit="10" stroke-linecap="round"/>
<path d="M13.7549 41.6865L18.5776 44.4996L23.4004 41.6865" stroke="white" stroke-width="3" stroke-linecap="round" stroke-linejoin="round"/>
<path d="M18.5781 44.5001V37.4673" stroke="white" stroke-width="3" stroke-miterlimit="10" stroke-linecap="round"/>
<path d="M35.457 20.5451V14.9619L30.7846 12.1919" stroke="white" stroke-width="3" stroke-linecap="round" stroke-linejoin="round"/>
<path d="M35.457 14.9624L29.5416 18.4788" stroke="white" stroke-width="3" stroke-miterlimit="10" stroke-linecap="round"/>
<path d="M1.69867 29.0713V34.6545L6.37109 37.4245" stroke="white" stroke-width="3" stroke-linecap="round" stroke-linejoin="round"/>
<path d="M1.69976 34.6541L7.61523 31.1377" stroke="white" stroke-width="3" stroke-miterlimit="10" stroke-linecap="round"/>
<path d="M30.7846 37.4676L35.457 34.6545V29.0713" stroke="white" stroke-width="3" stroke-linecap="round" stroke-linejoin="round"/>
<path d="M35.457 34.6541L29.5987 31.1377" stroke="white" stroke-width="3" stroke-miterlimit="10" stroke-linecap="round"/>
<path d="M6.37109 12.1919L1.69867 14.9619V20.5451" stroke="white" stroke-width="3" stroke-linecap="round" stroke-linejoin="round"/>
<path d="M1.69891 14.9624L7.61438 18.4788M18.5776 30.4346V24.8083M18.5776 24.8083L13.7549 21.9952M18.5776 24.8083L23.4004 21.9952" stroke="white" stroke-width="3" stroke-miterlimit="10" stroke-linecap="round"/>
</svg>
